<svg width="104" height="104" viewBox="0 0 104 104" fill="none" xmlns="http://www.w3.org/2000/svg">
<g filter="url(#filter0_d_225_1006)">
<rect x="40" y="37" width="24" height="24" rx="12" fill="#FBDA47"/>
<rect x="40.5" y="37.5" width="23" height="23" rx="11.5" stroke="#9266CC"/>
<g clip-path="url(#clip0_225_1006)">
<path d="M59.5556 56.9999V53.8888C59.5556 52.4154 57.9178 51.4443 56.4444 51.4443H51.1111C49.6387 51.4443 48 52.4154 48 53.8888V56.9999H59.5556Z" fill="#9266CC"/>
<path d="M53.7529 41.6973C55.5778 41.6973 58.6187 42.6097 58.6187 46.563C58.6187 50.5164 58.6187 51.4288 57.7062 51.4288C56.7933 51.4288 55.5773 50.5164 53.7524 50.5164C51.928 50.5164 50.7373 51.4288 49.7991 51.4288C48.7827 51.4288 48.8867 47.7795 48.8867 46.563C48.8876 42.6097 51.9284 41.6973 53.7529 41.6973Z" fill="#60352A"/>
<path d="M52.1458 51.4537C52.1458 52.1115 53.1111 52.3337 53.7778 52.3337C54.4444 52.3337 55.4044 52.1115 55.4044 51.4537V50.0293H52.1458V51.4537Z" fill="#AF7E57"/>
<path d="M52.1427 50.635C52.5974 51.1483 53.1609 51.2874 53.7734 51.2874C54.3863 51.2874 54.9498 51.1487 55.4045 50.635V49.3301H52.1427V50.635Z" fill="#9B6A49"/>
<path d="M50.104 46.43C50.104 43.8371 51.7378 41.7354 53.7529 41.7354C55.768 41.7354 57.4022 43.8371 57.4022 46.43C57.4022 49.0225 55.768 51.0016 53.7529 51.0016C51.7378 51.0016 50.104 49.0229 50.104 46.43Z" fill="#AF7E57"/>
<path d="M53.7529 49.9077C53.0396 49.9077 52.6658 49.5548 52.6258 49.5144C52.5707 49.4573 52.5401 49.381 52.5405 49.3017C52.5409 49.2223 52.5723 49.1463 52.628 49.0898C52.6837 49.0333 52.7593 49.0008 52.8386 48.9993C52.9179 48.9977 52.9946 49.0272 53.0525 49.0815C53.0681 49.0957 53.2983 49.2997 53.7529 49.2997C54.2147 49.2997 54.4449 49.0895 54.4538 49.0811C54.5121 49.0262 54.5896 48.9965 54.6696 48.9981C54.7497 48.9998 54.8258 49.0327 54.8818 49.0899C54.9974 49.2095 54.9974 49.3971 54.8801 49.5144C54.8405 49.5548 54.4672 49.9077 53.7529 49.9077Z" fill="#DF1F32"/>
<path d="M49.2111 47.8885C49.2017 47.444 49.1915 47.7889 49.1915 47.6818C49.1915 46.1609 50.104 47.9014 50.104 46.8183C50.104 45.7343 50.712 45.6258 51.32 45.0178C51.6244 44.7134 52.2324 44.1174 52.2324 44.1174C52.2324 44.1174 53.7529 45.036 54.9693 45.036C56.1853 45.036 57.4022 45.6472 57.4022 46.8636C57.4022 48.08 58.3146 46.1596 58.3146 47.68C58.3146 47.7885 58.3049 47.444 58.2969 47.8885H58.616C58.6191 46.9996 58.6191 47.0334 58.6191 46.4654C58.6191 42.512 55.5777 41.04 53.7533 41.04C51.9289 41.04 48.888 42.4876 48.888 46.4409C48.888 46.7934 48.8791 46.9996 48.8915 47.8885H49.2111Z" fill="#60352A"/>
<path d="M52.2702 47.3942C52.1706 47.3938 52.0751 47.3541 52.0047 47.2836C51.9342 47.2132 51.8945 47.1178 51.8942 47.0182V46.6426C51.8942 46.4359 52.0635 46.2666 52.2702 46.2666C52.4768 46.2666 52.6466 46.4359 52.6466 46.6426V47.0182C52.6461 47.1178 52.6063 47.2132 52.5358 47.2837C52.4653 47.3541 52.3698 47.3938 52.2702 47.3942ZM55.2768 47.3942C55.1772 47.3938 55.0818 47.3541 55.0113 47.2836C54.9409 47.2132 54.9012 47.1178 54.9008 47.0182V46.6426C54.9008 46.4359 55.0702 46.2666 55.2768 46.2666C55.4835 46.2666 55.6528 46.4359 55.6528 46.6426V47.0182C55.6525 47.1178 55.6128 47.2132 55.5423 47.2836C55.4719 47.3541 55.3764 47.3938 55.2768 47.3942Z" fill="#60352A"/>
<path d="M54.1498 48.5558H53.3982C53.3484 48.5557 53.3006 48.5358 53.2654 48.5006C53.2302 48.4653 53.2103 48.4176 53.2102 48.3678V48.2998C53.2102 48.1962 53.2942 48.1113 53.3982 48.1113H54.1498C54.2529 48.1113 54.3378 48.1958 54.3378 48.2998V48.3678C54.3376 48.4176 54.3178 48.4653 54.2826 48.5006C54.2473 48.5358 54.1996 48.5557 54.1498 48.5558Z" fill="#915A34"/>
<path d="M50.864 46.9714C50.864 47.615 50.5378 48.1368 50.1355 48.1368C49.7333 48.1368 49.4071 47.615 49.4071 46.9714C49.4071 46.3279 49.7333 45.8057 50.1355 45.8057C50.5378 45.8052 50.864 46.3274 50.864 46.9714ZM58.148 46.9714C58.148 47.615 57.8222 48.1368 57.4195 48.1368C57.0173 48.1368 56.6911 47.615 56.6911 46.9714C56.6911 46.3279 57.0169 45.8057 57.4195 45.8057C57.8222 45.8052 58.148 46.3274 58.148 46.9714Z" fill="#AF7E57"/>
<path d="M58.6667 56.5558C58.6667 56.6736 58.6199 56.7867 58.5365 56.87C58.4532 56.9534 58.3401 57.0002 58.2223 57.0002H53.7778C53.6599 57.0002 53.5469 56.9534 53.4635 56.87C53.3802 56.7867 53.3334 56.6736 53.3334 56.5558C53.3334 56.4379 53.3802 56.3249 53.4635 56.2415C53.5469 56.1582 53.6599 56.1113 53.7778 56.1113H58.2223C58.3401 56.1113 58.4532 56.1582 58.5365 56.2415C58.6199 56.3249 58.6667 56.4379 58.6667 56.5558Z" fill="#E1E8ED"/>
<path d="M52.9956 50.7773H45.6707C44.9933 50.7773 44.1249 51.12 44.5693 52.3467L45.9347 56.1133C45.9351 56.1133 46.1111 56.9996 47.1111 56.9996H56L54.2222 52.004C54.0276 51.4165 53.6733 50.7773 52.9956 50.7773Z" fill="#E1E8ED"/>
<path d="M52.5511 50.7773H45.2262C44.5489 50.7773 43.6804 51.12 44.1249 52.3467L45.4902 56.1133C45.4907 56.1133 45.6667 56.9996 46.6667 56.9996H55.5555L53.7778 52.004C53.5831 51.4165 53.2289 50.7773 52.5511 50.7773Z" fill="#99AAB5"/>
<path d="M50.2307 54.0143C50.4636 54.713 50.2751 55.4055 49.8089 55.5606C49.3436 55.7161 48.7769 55.2757 48.544 54.577C48.3111 53.8783 48.5 53.1859 48.9658 53.0308C49.4316 52.8757 49.9982 53.3157 50.2307 54.0143ZM52.4444 51.9997H45.3333C45.2449 51.9997 45.1601 51.9646 45.0976 51.902C45.0351 51.8395 45 51.7547 45 51.6663C45 51.5779 45.0351 51.4932 45.0976 51.4306C45.1601 51.3681 45.2449 51.333 45.3333 51.333H52.4444C52.5328 51.333 52.6176 51.3681 52.6801 51.4306C52.7427 51.4932 52.7778 51.5779 52.7778 51.6663C52.7778 51.7547 52.7427 51.8395 52.6801 51.902C52.6176 51.9646 52.5328 51.9997 52.4444 51.9997Z" fill="#E1E8ED"/>
</g>
</g>
<defs>
<filter id="filter0_d_225_1006" x="0" y="0" width="104" height="104" filterUnits="userSpaceOnUse" color-interpolation-filters="sRGB">
<feFlood flood-opacity="0" result="BackgroundImageFix"/>
<feColorMatrix in="SourceAlpha" type="matrix" values="0 0 0 0 0 0 0 0 0 0 0 0 0 0 0 0 0 0 127 0" result="hardAlpha"/>
<feOffset dy="3"/>
<feGaussianBlur stdDeviation="20"/>
<feComposite in2="hardAlpha" operator="out"/>
<feColorMatrix type="matrix" values="0 0 0 0 0 0 0 0 0 0 0 0 0 0 0 0 0 0 0.07 0"/>
<feBlend mode="normal" in2="BackgroundImageFix" result="effect1_dropShadow_225_1006"/>
<feBlend mode="normal" in="SourceGraphic" in2="effect1_dropShadow_225_1006" result="shape"/>
</filter>
<clipPath id="clip0_225_1006">
<rect width="16" height="16" fill="white" transform="translate(44 41)"/>
</clipPath>
</defs>
</svg>
