<svg width="16" height="16" viewBox="0 0 16 16" fill="none" xmlns="http://www.w3.org/2000/svg">
<g clip-path="url(#clip0_223_985)">
<path d="M15.5556 15.9999V12.8888C15.5556 11.4154 13.9178 10.4443 12.4444 10.4443H7.11111C5.63867 10.4443 4 11.4154 4 12.8888V15.9999H15.5556Z" fill="#9266CC"/>
<path d="M9.75289 0.697266C11.5778 0.697266 14.6187 1.60971 14.6187 5.56304C14.6187 9.51638 14.6187 10.4288 13.7062 10.4288C12.7933 10.4288 11.5773 9.51638 9.75245 9.51638C7.928 9.51638 6.73733 10.4288 5.79911 10.4288C4.78267 10.4288 4.88667 6.77949 4.88667 5.56304C4.88756 1.60971 7.92845 0.697266 9.75289 0.697266Z" fill="#60352A"/>
<path d="M8.14575 10.4537C8.14575 11.1115 9.11109 11.3337 9.77775 11.3337C10.4444 11.3337 11.4044 11.1115 11.4044 10.4537V9.0293H8.14575V10.4537Z" fill="#AF7E57"/>
<path d="M8.1427 9.63497C8.59737 10.1483 9.16092 10.2874 9.77337 10.2874C10.3863 10.2874 10.9498 10.1487 11.4045 9.63497V8.33008H8.1427V9.63497Z" fill="#9B6A49"/>
<path d="M6.104 5.43002C6.104 2.83713 7.73778 0.735352 9.75289 0.735352C11.768 0.735352 13.4022 2.83713 13.4022 5.43002C13.4022 8.02246 11.768 10.0016 9.75289 10.0016C7.73778 10.0016 6.104 8.02291 6.104 5.43002Z" fill="#AF7E57"/>
<path d="M9.75294 8.90773C9.03961 8.90773 8.66583 8.55484 8.62583 8.51439C8.57074 8.45733 8.54012 8.38099 8.54053 8.30167C8.54094 8.22235 8.57234 8.14633 8.62802 8.08984C8.6837 8.03334 8.75926 8.00085 8.83856 7.99929C8.91787 7.99774 8.99464 8.02724 9.0525 8.0815C9.06805 8.09573 9.29828 8.29973 9.75294 8.29973C10.2147 8.29973 10.4449 8.0895 10.4538 8.08106C10.5121 8.02623 10.5896 7.99645 10.6696 7.99811C10.7497 7.99977 10.8258 8.03275 10.8818 8.08995C10.9974 8.2095 10.9974 8.39706 10.8801 8.51439C10.8405 8.55484 10.4672 8.90773 9.75294 8.90773Z" fill="#DF1F32"/>
<path d="M5.21107 6.88848C5.20174 6.44404 5.19152 6.78893 5.19152 6.68182C5.19152 5.16093 6.10396 6.90137 6.10396 5.81826C6.10396 4.73426 6.71196 4.62582 7.31996 4.01782C7.62441 3.71337 8.23241 3.11737 8.23241 3.11737C8.23241 3.11737 9.75285 4.03604 10.9693 4.03604C12.1853 4.03604 13.4022 4.64715 13.4022 5.86359C13.4022 7.08004 14.3146 5.15959 14.3146 6.68004C14.3146 6.78848 14.3049 6.44404 14.2969 6.88848H14.616C14.6191 5.99959 14.6191 6.03337 14.6191 5.46537C14.6191 1.51204 11.5777 0.0400391 9.7533 0.0400391C7.92885 0.0400391 4.88796 1.48759 4.88796 5.44093C4.88796 5.79337 4.87907 5.99959 4.89152 6.88848H5.21107Z" fill="#60352A"/>
<path d="M8.27017 6.39416C8.17055 6.39381 8.07512 6.35408 8.00468 6.28364C7.93424 6.2132 7.89452 6.11777 7.89417 6.01816V5.6426C7.89417 5.43593 8.0635 5.2666 8.27017 5.2666C8.47683 5.2666 8.64661 5.43593 8.64661 5.6426V6.01816C8.64614 6.11781 8.60632 6.21324 8.53581 6.28367C8.4653 6.35409 8.36982 6.39381 8.27017 6.39416ZM11.2768 6.39416C11.1772 6.39381 11.0818 6.35408 11.0113 6.28364C10.9409 6.2132 10.9012 6.11777 10.9008 6.01816V5.6426C10.9008 5.43593 11.0702 5.2666 11.2768 5.2666C11.4835 5.2666 11.6528 5.43593 11.6528 5.6426V6.01816C11.6525 6.11777 11.6128 6.2132 11.5423 6.28364C11.4719 6.35408 11.3764 6.39381 11.2768 6.39416Z" fill="#60352A"/>
<path d="M10.1498 7.55577H9.39821C9.34838 7.55566 9.30063 7.53581 9.2654 7.50058C9.23017 7.46535 9.21032 7.4176 9.21021 7.36777V7.29977C9.21021 7.19622 9.29421 7.11133 9.39821 7.11133H10.1498C10.2529 7.11133 10.3378 7.19577 10.3378 7.29977V7.36777C10.3376 7.4176 10.3178 7.46535 10.2826 7.50058C10.2473 7.53581 10.1996 7.55566 10.1498 7.55577Z" fill="#915A34"/>
<path d="M6.86399 5.97144C6.86399 6.615 6.53777 7.13678 6.13555 7.13678C5.73333 7.13678 5.4071 6.615 5.4071 5.97144C5.4071 5.32789 5.73333 4.80566 6.13555 4.80566C6.53777 4.80522 6.86399 5.32744 6.86399 5.97144ZM14.148 5.97144C14.148 6.615 13.8222 7.13678 13.4195 7.13678C13.0173 7.13678 12.6911 6.615 12.6911 5.97144C12.6911 5.32789 13.0169 4.80566 13.4195 4.80566C13.8222 4.80522 14.148 5.32744 14.148 5.97144Z" fill="#AF7E57"/>
<path d="M14.6667 15.5558C14.6667 15.6736 14.6199 15.7867 14.5365 15.87C14.4532 15.9534 14.3401 16.0002 14.2223 16.0002H9.77782C9.65994 16.0002 9.5469 15.9534 9.46355 15.87C9.3802 15.7867 9.33337 15.6736 9.33337 15.5558C9.33337 15.4379 9.3802 15.3249 9.46355 15.2415C9.5469 15.1582 9.65994 15.1113 9.77782 15.1113H14.2223C14.3401 15.1113 14.4532 15.1582 14.5365 15.2415C14.6199 15.3249 14.6667 15.4379 14.6667 15.5558Z" fill="#E1E8ED"/>
<path d="M8.99556 9.77734H1.67067C0.993339 9.77734 0.124895 10.12 0.569339 11.3467L1.93467 15.1133C1.93512 15.1133 2.11112 15.9996 3.11112 15.9996H12L10.2222 11.004C10.0276 10.4165 9.67334 9.77734 8.99556 9.77734Z" fill="#E1E8ED"/>
<path d="M8.5511 9.77734H1.22621C0.548881 9.77734 -0.319563 10.12 0.124881 11.3467L1.49021 15.1133C1.49066 15.1133 1.66666 15.9996 2.66666 15.9996H11.5555L9.77777 11.004C9.5831 10.4165 9.22888 9.77734 8.5511 9.77734Z" fill="#99AAB5"/>
<path d="M6.23067 13.0143C6.46356 13.713 6.27511 14.4055 5.80889 14.5606C5.34356 14.7161 4.77689 14.2757 4.544 13.577C4.31111 12.8783 4.5 12.1859 4.96578 12.0308C5.43156 11.8757 5.99822 12.3157 6.23067 13.0143ZM8.44444 10.9997H1.33333C1.24493 10.9997 1.16014 10.9646 1.09763 10.902C1.03512 10.8395 1 10.7547 1 10.6663C1 10.5779 1.03512 10.4932 1.09763 10.4306C1.16014 10.3681 1.24493 10.333 1.33333 10.333H8.44444C8.53285 10.333 8.61763 10.3681 8.68015 10.4306C8.74266 10.4932 8.77778 10.5779 8.77778 10.6663C8.77778 10.7547 8.74266 10.8395 8.68015 10.902C8.61763 10.9646 8.53285 10.9997 8.44444 10.9997Z" fill="#E1E8ED"/>
</g>
<defs>
<clipPath id="clip0_223_985">
<rect width="16" height="16" fill="white"/>
</clipPath>
</defs>
</svg>
