<svg width="40" height="40" viewBox="0 0 40 40" fill="none" xmlns="http://www.w3.org/2000/svg">
<g clip-path="url(#clip0_223_939)">
<path d="M20 40C31.0457 40 40 31.0457 40 20C40 8.9543 31.0457 0 20 0C8.9543 0 0 8.9543 0 20C0 31.0457 8.9543 40 20 40Z" fill="#273B7A"/>
<path d="M24.0973 39.5791C31.8497 37.965 37.9556 31.863 39.5758 24.1129L29.2622 13.7764L17.6709 21.6664L19.0469 23.0424L10.7163 26.2011L24.0973 39.5791Z" fill="#121149"/>
<path d="M28.0108 13.2441H11.989C11.0298 13.2441 10.2456 14.0292 10.2456 14.9878V25.0133C10.2456 25.9712 11.0297 26.7565 11.989 26.7565H28.0108C28.97 26.7565 29.7544 25.9713 29.7544 25.0133V14.9879C29.7544 14.0294 28.97 13.2441 28.0108 13.2441Z" fill="url(#paint0_linear_223_939)"/>
<path d="M19.9276 22.6406L12.6648 26.5734L12.6767 26.7565L20.0123 22.8024L19.9276 22.6406Z" fill="#B5B4B0"/>
<path d="M28.1587 14.9111L23.5051 18.4947L20.0122 22.8028L27.1142 26.7568H28.0107C28.6546 26.7568 29.2185 26.4026 29.5207 25.8795L28.9194 21.8849L28.1587 14.9111Z" fill="#B5B4B0"/>
<path d="M20.0122 22.8025L29.7544 15.2598V14.9878C29.7544 14.0291 28.9701 13.2441 28.0108 13.2441H27.6229L20.2447 19.5424L12.5684 13.2441H11.989C11.0298 13.2441 10.2456 14.0292 10.2456 14.9878V25.0133C10.2456 25.9712 11.0297 26.7565 11.989 26.7565H12.6766V16.9805L20.0122 22.8025Z" fill="#DD4B40"/>
<path d="M29.7544 25.0133V15.2598L27.1143 17.3038V26.7565H28.0108C28.97 26.7566 29.7544 25.9714 29.7544 25.0133Z" fill="#A43026"/>
</g>
<defs>
<linearGradient id="paint0_linear_223_939" x1="10.2456" y1="20.0005" x2="25.02" y2="20.0005" gradientUnits="userSpaceOnUse">
<stop stop-color="#F3F1E8"/>
<stop offset="1" stop-color="#E3E0D0"/>
</linearGradient>
<clipPath id="clip0_223_939">
<rect width="40" height="40" fill="white"/>
</clipPath>
</defs>
</svg>
