<svg width="40" height="40" viewBox="0 0 40 40" fill="none" xmlns="http://www.w3.org/2000/svg">
<g clip-path="url(#clip0_223_948)">
<path d="M34 0H6C2.68629 0 0 2.68629 0 6V34C0 37.3137 2.68629 40 6 40H34C37.3137 40 40 37.3137 40 34V6C40 2.68629 37.3137 0 34 0Z" fill="#25D366"/>
<path d="M9.60931 30.7036L10.7031 25.6254C9.29728 23.4081 8.74887 20.7541 9.16075 18.1612C9.57262 15.5683 10.9165 13.2148 12.9402 11.5422C14.9638 9.86969 17.5283 8.99305 20.1523 9.07678C22.7764 9.16051 25.2797 10.1989 27.1927 11.997C29.1056 13.7952 30.2967 16.2296 30.5424 18.8434C30.7881 21.4573 30.0717 24.071 28.5274 26.1942C26.9831 28.3174 24.7171 29.8041 22.1546 30.3754C19.5922 30.9467 16.9093 30.5634 14.6093 29.2973L9.60931 30.7036Z" fill="#25D366" stroke="white"/>
<path d="M24.0625 21.3283C23.8282 21.1721 23.5938 21.0939 23.3594 21.4064L22.4219 22.6564C22.1875 22.8127 22.0313 22.8908 21.7188 22.7346C20.5469 22.1096 18.9063 21.4064 17.5 19.0627C17.4219 18.7502 17.5782 18.5939 17.7344 18.4377L18.4375 17.3439C18.5938 17.1877 18.5157 17.0314 18.4375 16.8752L17.5 14.6096C17.2657 13.9846 17.0313 14.0627 16.7969 14.0627H16.1719C16.0157 14.0627 15.7032 14.1408 15.3907 14.4533C13.6719 16.1721 14.375 18.5939 15.625 20.1564C15.8594 20.4689 17.4219 23.2814 20.7813 24.7658C23.2813 25.8596 23.8282 25.7033 24.5313 25.5471C25.3907 25.4689 26.25 24.7658 26.6407 24.0627C26.7188 23.8283 27.1094 22.8127 26.7969 22.6564" fill="white"/>
</g>
<defs>
<clipPath id="clip0_223_948">
<rect width="40" height="40" rx="20" fill="white"/>
</clipPath>
</defs>
</svg>
