<svg width="16" height="16" viewBox="0 0 16 16" fill="none" xmlns="http://www.w3.org/2000/svg">
<g clip-path="url(#clip0_227_1035)">
<path fill-rule="evenodd" clip-rule="evenodd" d="M6.5757 0.751785L0.233606 7.10413C-0.0778686 7.41611 -0.0778686 7.9226 0.233606 8.23538C0.545879 8.54737 1.05143 8.54737 1.3637 8.23538L6.50702 3.08264C6.7586 2.83065 7.18827 3.00906 7.18827 3.36585V15.1998C7.18827 15.6414 7.55246 15.9998 7.99411 15.9998H7.99651C8.43816 15.9998 8.78557 15.6414 8.78557 15.1998V3.36585C8.78557 3.00906 9.21605 2.83065 9.46762 3.08264L14.6365 8.25999C14.948 8.57278 15.4543 8.57278 15.7658 8.25999C16.0781 7.948 16.0781 7.44111 15.7658 7.12913L9.11702 0.468582C8.49327 -0.156194 7.48217 -0.156194 6.85843 0.468582L6.5757 0.751785Z" fill="#FBDA47"/>
</g>
<defs>
<clipPath id="clip0_227_1035">
<rect width="16" height="16" fill="white"/>
</clipPath>
</defs>
</svg>
