<svg width="40" height="40" viewBox="0 0 40 40" fill="none" xmlns="http://www.w3.org/2000/svg">
<g clip-path="url(#clip0_223_953)">
<path d="M38.8889 40.0002V32.2224C38.8889 28.5391 34.7944 26.1113 31.1111 26.1113H17.7778C14.0967 26.1113 10 28.5391 10 32.2224V40.0002H38.8889Z" fill="#9266CC"/>
<path d="M24.3822 1.74316C28.9444 1.74316 36.5466 4.02427 36.5466 13.9076C36.5466 23.7909 36.5466 26.0721 34.2655 26.0721C31.9833 26.0721 28.9433 23.7909 24.3811 23.7909C19.8199 23.7909 16.8433 26.0721 14.4977 26.0721C11.9566 26.0721 12.2166 16.9487 12.2166 13.9076C12.2188 4.02427 19.8211 1.74316 24.3822 1.74316Z" fill="#60352A"/>
<path d="M20.3645 26.1334C20.3645 27.7778 22.7778 28.3334 24.4445 28.3334C26.1112 28.3334 28.5112 27.7778 28.5112 26.1334V22.5723H20.3645V26.1334Z" fill="#AF7E57"/>
<path d="M20.3567 24.0874C21.4934 25.3708 22.9022 25.7185 24.4334 25.7185C25.9656 25.7185 27.3745 25.3719 28.5111 24.0874V20.8252H20.3567V24.0874Z" fill="#9B6A49"/>
<path d="M15.26 13.5746C15.26 7.09233 19.3445 1.83789 24.3822 1.83789C29.42 1.83789 33.5056 7.09233 33.5056 13.5746C33.5056 20.0557 29.42 25.0034 24.3822 25.0034C19.3445 25.0034 15.26 20.0568 15.26 13.5746Z" fill="#AF7E57"/>
<path d="M24.3822 22.2703C22.5989 22.2703 21.6645 21.3881 21.5645 21.287C21.4267 21.1443 21.3502 20.9535 21.3512 20.7552C21.3522 20.5569 21.4307 20.3668 21.5699 20.2256C21.7091 20.0843 21.898 20.0031 22.0963 19.9992C22.2946 19.9953 22.4865 20.0691 22.6311 20.2047C22.67 20.2403 23.2456 20.7503 24.3822 20.7503C25.5367 20.7503 26.1122 20.2247 26.1345 20.2036C26.2802 20.0666 26.4739 19.9921 26.674 19.9963C26.874 20.0004 27.0645 20.0828 27.2045 20.2258C27.4933 20.5247 27.4933 20.9936 27.2 21.287C27.1011 21.3881 26.1678 22.2703 24.3822 22.2703Z" fill="#DF1F32"/>
<path d="M13.0277 17.2227C13.0044 16.1116 12.9789 16.9738 12.9789 16.706C12.9789 12.9038 15.26 17.2549 15.26 14.5471C15.26 11.8371 16.78 11.566 18.3 10.046C19.0611 9.2849 20.5811 7.7949 20.5811 7.7949C20.5811 7.7949 24.3822 10.0916 27.4233 10.0916C30.4633 10.0916 33.5055 11.6193 33.5055 14.6605C33.5055 17.7016 35.7866 12.9005 35.7866 16.7016C35.7866 16.9727 35.7622 16.1116 35.7422 17.2227H36.54C36.5477 15.0005 36.5477 15.0849 36.5477 13.6649C36.5477 3.78156 28.9444 0.101562 24.3833 0.101562C19.8222 0.101562 12.22 3.72045 12.22 13.6038C12.22 14.4849 12.1977 15.0005 12.2289 17.2227H13.0277Z" fill="#60352A"/>
<path d="M20.6756 15.9849C20.4266 15.984 20.188 15.8847 20.0119 15.7086C19.8358 15.5325 19.7365 15.2939 19.7356 15.0449V14.106C19.7356 13.5893 20.1589 13.166 20.6756 13.166C21.1923 13.166 21.6167 13.5893 21.6167 14.106V15.0449C21.6155 15.294 21.516 15.5326 21.3397 15.7087C21.1634 15.8847 20.9247 15.984 20.6756 15.9849ZM28.1923 15.9849C27.9432 15.984 27.7046 15.8847 27.5286 15.7086C27.3525 15.5325 27.2531 15.2939 27.2523 15.0449V14.106C27.2523 13.5893 27.6756 13.166 28.1923 13.166C28.7089 13.166 29.1323 13.5893 29.1323 14.106V15.0449C29.1314 15.2939 29.0321 15.5325 28.856 15.7086C28.6799 15.8847 28.4413 15.984 28.1923 15.9849Z" fill="#60352A"/>
<path d="M25.3744 18.8885H23.4955C23.371 18.8882 23.2516 18.8385 23.1635 18.7505C23.0754 18.6624 23.0258 18.543 23.0255 18.4185V18.2485C23.0255 17.9896 23.2355 17.7773 23.4955 17.7773H25.3744C25.6322 17.7773 25.8444 17.9885 25.8444 18.2485V18.4185C25.8441 18.543 25.7945 18.6624 25.7064 18.7505C25.6183 18.8385 25.499 18.8882 25.3744 18.8885Z" fill="#915A34"/>
<path d="M17.16 14.9291C17.16 16.538 16.3445 17.8424 15.3389 17.8424C14.3334 17.8424 13.5178 16.538 13.5178 14.9291C13.5178 13.3202 14.3334 12.0146 15.3389 12.0146C16.3445 12.0135 17.16 13.3191 17.16 14.9291ZM35.37 14.9291C35.37 16.538 34.5556 17.8424 33.5489 17.8424C32.5434 17.8424 31.7278 16.538 31.7278 14.9291C31.7278 13.3202 32.5423 12.0146 33.5489 12.0146C34.5556 12.0135 35.37 13.3191 35.37 14.9291Z" fill="#AF7E57"/>
<path d="M36.6667 38.8885C36.6667 39.1831 36.5496 39.4658 36.3413 39.6741C36.1329 39.8825 35.8503 39.9996 35.5556 39.9996H24.4445C24.1498 39.9996 23.8672 39.8825 23.6588 39.6741C23.4504 39.4658 23.3334 39.1831 23.3334 38.8885C23.3334 38.5938 23.4504 38.3112 23.6588 38.1028C23.8672 37.8944 24.1498 37.7773 24.4445 37.7773H35.5556C35.8503 37.7773 36.1329 37.8944 36.3413 38.1028C36.5496 38.3112 36.6667 38.5938 36.6667 38.8885Z" fill="#E1E8ED"/>
<path d="M22.4888 24.4443H4.17662C2.48329 24.4443 0.312176 25.301 1.42329 28.3677L4.83662 37.7843C4.83773 37.7843 5.27773 39.9999 7.77773 39.9999H30L25.5555 27.511C25.0688 26.0421 24.1833 24.4443 22.4888 24.4443Z" fill="#E1E8ED"/>
<path d="M21.3778 24.4443H3.06554C1.3722 24.4443 -0.798908 25.301 0.312203 28.3677L3.72554 37.7843C3.72665 37.7843 4.16665 39.9999 6.66665 39.9999H28.8889L24.4444 27.511C23.9578 26.0421 23.0722 24.4443 21.3778 24.4443Z" fill="#99AAB5"/>
<path d="M15.5767 32.5363C16.1589 34.283 15.6878 36.0141 14.5222 36.4019C13.3589 36.7908 11.9422 35.6897 11.36 33.943C10.7778 32.1963 11.25 30.4652 12.4144 30.0775C13.5789 29.6897 14.9956 30.7897 15.5767 32.5363ZM21.1111 27.4997H3.33333C3.11232 27.4997 2.90036 27.4119 2.74408 27.2556C2.5878 27.0993 2.5 26.8874 2.5 26.6663C2.5 26.4453 2.5878 26.2334 2.74408 26.0771C2.90036 25.9208 3.11232 25.833 3.33333 25.833H21.1111C21.3321 25.833 21.5441 25.9208 21.7004 26.0771C21.8566 26.2334 21.9444 26.4453 21.9444 26.6663C21.9444 26.8874 21.8566 27.0993 21.7004 27.2556C21.5441 27.4119 21.3321 27.4997 21.1111 27.4997Z" fill="#E1E8ED"/>
</g>
<defs>
<clipPath id="clip0_223_953">
<rect width="40" height="40" fill="white"/>
</clipPath>
</defs>
</svg>
